<?xml version="1.0" encoding="UTF-8"?><svg id="b" xmlns="http://www.w3.org/2000/svg" viewBox="0 0 472.56 72.84"><g id="c"><path d="m104.68,27.95h-8.1l.89-7.27h23.47l-.89,7.27h-7.51l-3.96,32.16h-7.86l3.96-32.16Z" fill="#052c65" stroke-width="0"/><path d="m121.76,36.22h7.21l-.53,4.61c2.96-4.31,4.55-5.44,7.63-5.44l1.24.06-.89,7.45c-1.12-.3-1.77-.41-2.72-.41-4.02,0-5.67,1.83-6.32,6.86l-1.3,10.76h-7.27l2.96-23.88Z" fill="#052c65" stroke-width="0"/><path d="m166.33,36.22l-2.9,23.88h-7.39l.65-3.37c-2.84,3.01-5.02,4.14-8.22,4.14-5.79,0-9.69-4.49-9.69-11.11,0-8.22,5.08-14.3,12-14.3,3.43,0,5.38,1,7.98,4.2l.41-3.43h7.15Zm-19.68,12.47c0,3.49,1.95,5.73,5.02,5.73,3.55,0,6.21-3.19,6.21-7.51,0-3.49-1.89-5.67-4.91-5.67-3.55,0-6.32,3.31-6.32,7.45Z" fill="#052c65" stroke-width="0"/><path d="m177.03,36.22l2.9,9.81c.89,2.84,1.06,3.96,1.06,5.85v.47l.35.06c.65-2.6,1.18-3.78,2.66-6.32l5.56-9.87h7.51l-13.6,23.88h-6.44l-7.33-23.88h7.33Z" fill="#052c65" stroke-width="0"/><path d="m220.06,55.44c-2.01,3.49-5.85,5.44-10.82,5.44-7.51,0-12.29-4.73-12.29-12.06,0-7.8,5.56-13.36,13.3-13.36,7.09,0,11.41,4.55,11.41,12.12,0,.65,0,1.18-.12,2.19h-17.5c.24,1.66.53,2.36,1.06,3.07.89,1.06,2.54,1.77,4.31,1.77,1.6,0,2.78-.47,4.37-1.66l6.27,2.48Zm-4.97-10.58c-.3-2.72-1.71-4.02-4.37-4.02-2.84,0-4.43,1.12-6.03,4.02h10.4Z" fill="#052c65" stroke-width="0"/><path d="m230.58,17.01h7.27l-5.32,43.09h-7.27l5.32-43.09Z" fill="#052c65" stroke-width="0"/><path d="m283.42,58.27c-2.72,1.71-5.85,2.6-9.52,2.6-4.97,0-9.93-2.07-13.24-5.5-3.37-3.37-5.08-8.04-5.08-13.6,0-12.65,8.81-21.87,20.98-21.87,4.31,0,7.74.95,11.17,3.13l-1.06,8.69c-3.61-2.84-6.5-3.96-9.99-3.96-7.15,0-12.65,6.03-12.65,13.95,0,6.68,4.31,11.29,10.52,11.29,3.37,0,6.21-1.12,9.99-3.9l-1.12,9.16Z" fill="#052c65" stroke-width="0"/><path d="m315.52,47.75c0,7.45-5.73,13.12-13.3,13.12s-13-4.91-13-12.18,5.91-13.24,13.54-13.24,12.77,5.08,12.77,12.29Zm-18.5.89c0,3.49,2.01,5.79,4.97,5.79,3.37,0,5.73-2.84,5.73-6.86,0-3.43-1.95-5.67-5.02-5.67-3.25,0-5.67,2.84-5.67,6.74Z" fill="#052c65" stroke-width="0"/><path d="m322.43,36.22h7.27l-.47,3.55c2.66-3.13,4.85-4.32,8.1-4.32s5.2,1.12,6.56,4.02c2.78-3.07,4.67-4.02,8.1-4.02,4.91,0,7.68,2.42,7.68,6.68,0,.65-.06,1.77-.18,2.72l-1.89,15.25h-7.27l1.66-13.18c.06-.77.12-1.36.12-2.01,0-1.89-1.24-2.96-3.37-2.96-1.77,0-3.31.89-4.14,2.31-.41.71-.83,2.25-1.06,4.2l-1.42,11.64h-7.27l1.66-13.06c.06-.71.12-1.54.12-2.01,0-2.01-1.18-3.07-3.31-3.07-1.83,0-3.31.95-4.2,2.54-.35.77-.71,2.31-.95,4.2l-1.42,11.41h-7.27l2.96-23.88Z" fill="#052c65" stroke-width="0"/><path d="m367.53,36.22h7.21l-.41,3.61c2.78-3.13,5.08-4.37,8.22-4.37,5.85,0,9.69,4.43,9.69,11.23,0,8.16-5.08,14.25-12,14.25-3.19,0-5.02-1-7.98-4.31l-1.77,14.54h-7.27l4.31-34.93Zm5.73,12.94c0,3.49,1.89,5.67,4.97,5.67,3.43,0,6.15-3.25,6.15-7.39,0-3.49-1.95-5.85-4.91-5.85-3.43,0-6.21,3.31-6.21,7.57Z" fill="#052c65" stroke-width="0"/><path d="m423.8,36.22l-2.9,23.88h-7.39l.65-3.37c-2.84,3.01-5.02,4.14-8.22,4.14-5.79,0-9.69-4.49-9.69-11.11,0-8.22,5.08-14.3,12-14.3,3.43,0,5.38,1,7.98,4.2l.41-3.43h7.15Zm-19.68,12.47c0,3.49,1.95,5.73,5.02,5.73,3.55,0,6.21-3.19,6.21-7.51,0-3.49-1.89-5.67-4.91-5.67-3.55,0-6.32,3.31-6.32,7.45Z" fill="#052c65" stroke-width="0"/><path d="m430.72,36.22h7.21l-.53,4.61c2.96-4.31,4.55-5.44,7.63-5.44l1.24.06-.89,7.45c-1.12-.3-1.77-.41-2.72-.41-4.02,0-5.67,1.83-6.32,6.86l-1.3,10.76h-7.27l2.96-23.88Z" fill="#052c65" stroke-width="0"/><path d="m470.97,55.44c-2.01,3.49-5.85,5.44-10.82,5.44-7.51,0-12.29-4.73-12.29-12.06,0-7.8,5.56-13.36,13.3-13.36,7.09,0,11.41,4.55,11.41,12.12,0,.65,0,1.18-.12,2.19h-17.5c.24,1.66.53,2.36,1.06,3.07.89,1.06,2.54,1.77,4.31,1.77,1.6,0,2.78-.47,4.37-1.66l6.27,2.48Zm-4.97-10.58c-.3-2.72-1.71-4.02-4.37-4.02-2.84,0-4.43,1.12-6.03,4.02h10.4Z" fill="#052c65" stroke-width="0"/><path d="m15.67,66.06c-.42,0-.84-.13-1.21-.41-4.4-3.34-8.04-7.69-10.53-12.6-2.61-5.15-3.94-10.71-3.94-16.52,0-9.76,3.8-18.93,10.7-25.84C17.6,3.8,26.78,0,36.54,0c8.06,0,15.7,2.57,22.09,7.43,6.19,4.71,10.8,11.38,12.97,18.81.31,1.06-.3,2.17-1.35,2.48-1.06.31-2.17-.3-2.48-1.35C63.74,13.6,50.89,3.99,36.54,3.99,18.59,3.99,3.99,18.59,3.99,36.54c0,10.27,4.7,19.72,12.89,25.94.88.67,1.05,1.92.38,2.8-.39.52-.99.79-1.59.79Z" fill="#052c65" stroke-width="0"/><path d="m76.06,44.18c.3-2.82-1.63-4.63-3.52-5.63-1.96-.99-4.17-1.52-6.46-1.53h-13.22l-2.82-7.16h.68c.99,0,1.88-.8,1.98-1.79l.38-3.58c.11-.99-.61-1.79-1.6-1.79h-4.27l-1.65-4.19c-.72-1.82-2.45-2.97-4.49-2.97h-4.95c-.99,0-1.88.8-1.98,1.79-.01.1-.01.2,0,.29l.35,5.84-3.48,1.12c-.97.31-1.58,1.33-1.37,2.27.12.53.5.95,1.01,1.13l4.19,1.45.48,7.92-8.21,1.34-4.22-4.72c-.62-.7-1.76-.7-2.53,0-.37.34-.61.79-.66,1.27l-1.91,17.91c-.11.99.61,1.79,1.6,1.79.48,0,.95-.19,1.33-.53l5.22-4.72,7.93,1.34-2.16,7.92-4.5,1.45c-.97.31-1.58,1.33-1.37,2.27.12.53.5.95,1.01,1.13l3.24,1.12-1.6,5.84c-.27.98.29,1.9,1.25,2.06.1.02.19.02.29.02h4.95c2.04,0,4.02-1.15,5.12-2.97l2.54-4.19h4.27c.99,0,1.88-.8,1.98-1.79l.38-3.58c.11-.99-.61-1.79-1.6-1.79h-.68l4.34-7.16h13.22c2.03,0,4.61-.5,6.79-1.53,2.11-1,4.42-2.81,4.72-5.63m-10.37-3.58c1.55,0,3.47.39,4.9,1.15,1.49.79,1.97,1.67,1.89,2.43s-.74,1.64-2.4,2.43c-1.59.76-3.6,1.15-5.14,1.15h-14.33c-.68,0-1.34.38-1.71.99l-11.83,19.52c-.37.61-1.03.99-1.71.99h-2.84l5.3-19.41c.27-.97-.29-1.9-1.25-2.06l-10.56-1.79c-.56-.1-1.17.09-1.62.5l-2.56,2.31.99-9.26,2.07,2.32c.37.41.93.6,1.51.5l10.94-1.79c.99-.16,1.75-1.09,1.69-2.06,0,0,0,0,0,0l-1.17-19.41h2.84c.68,0,1.26.38,1.5.99l7.68,19.52c.24.61.82.99,1.5.99h14.33Z" fill="#052c65" stroke-width="0"/></g></svg>